<svg viewBox="0 0 76 98"  fill="none" xmlns="http://www.w3.org/2000/svg">
<path d="M47.0911 4.21594L48.0393 14.4254L56.4068 20.3512L46.1974 21.2995L40.2715 29.667L39.3233 19.4575L30.9558 13.5317L41.1652 12.5835L47.0911 4.21594Z" fill="#40A6F0"/>
<path d="M62.0533 26.2431L62.6567 32.74L67.9814 36.511L61.4845 37.1144L57.7135 42.4392L57.1101 35.9423L51.7853 32.1713L58.2822 31.5679L62.0533 26.2431Z" fill="#4281AF"/>
<path d="M60.2266 63.5219L61.3472 75.5876L71.2361 82.5909L59.1704 83.7115L52.1671 93.6004L51.0465 81.5347L41.1576 74.5314L53.2233 73.4108L60.2266 63.5219Z" fill="#40A6F0"/>
<path d="M24.4538 79.8528L26.2064 84.5891L30.9427 86.3417L26.2064 88.0943L24.4538 92.8306L22.7012 88.0943L17.9648 86.3417L22.7012 84.5891L24.4538 79.8528Z" fill="#40A6F0"/>
<path d="M16.0727 49.1219L16.8525 57.5176L23.7335 62.3908L15.3378 63.1705L10.4646 70.0515L9.68489 61.6558L2.80387 56.7827L11.1996 56.0029L16.0727 49.1219Z" fill="#4281AF"/>
</svg>
